HIERARCHY
ROOT Hips
{
	OFFSET 0.00 0.00 0.00
	CHANNELS 6 Xposition Yposition Zposition Xrotation Yrotation Zrotation
	JOINT Spine
	{
		OFFSET 0.00000 6.11665 0.00000
		CHANNELS 3 Xrotation Yrotation Zrotation
		JOINT Head
		{
			OFFSET 0.00000 15.22556 0.00000
			CHANNELS 3 Xrotation Yrotation Zrotation
			End Site
			{
				OFFSET 0.00000 4.52755 0.00000
			}
		}
		JOINT LeftShoulder
		{
			OFFSET 0.00000 8.97765 0.00000
			CHANNELS 3 Xrotation Yrotation Zrotation
			JOINT LeftArm
			{
				OFFSET 7.11013 0.00000 0.00000
				CHANNELS 3 Xrotation Yrotation Zrotation
				JOINT LeftForeArm
				{
					OFFSET 10.39834 0.00000 0.00000
					CHANNELS 3 Yrotation Zrotation Xrotation
					JOINT LeftHand
					{
						OFFSET 8.88900 0.00000 0.00000
						CHANNELS 3 Xrotation Yrotation Zrotation
						JOINT LeftHandThumb1
						{
							OFFSET 0.00000 0.00000 0.00000
							CHANNELS 3 Xrotation Zrotation Yrotation
							End Site
							{
								OFFSET 0.00000 0.00000 3.93700
							}
						}
						End Site
						{
							OFFSET 3.93700 0.00000 0.00000
						}
					}
				}
			}
		}
		JOINT RightShoulder
		{
			OFFSET 0.00000 8.97765 0.00000
			CHANNELS 3 Xrotation Yrotation Zrotation
			JOINT RightArm
			{
				OFFSET -7.11013 0.00000 0.00000
				CHANNELS 3 Xrotation Yrotation Zrotation
				JOINT RightForeArm
				{
					OFFSET -10.39834 0.00000 0.00000
					CHANNELS 3 Yrotation Zrotation Xrotation
					JOINT RightHand
					{
						OFFSET -8.88900 0.00000 0.00000
						CHANNELS 3 Xrotation Yrotation Zrotation
						JOINT RightHandThumb1
						{
							OFFSET 0.00000 0.00000 0.00000
							CHANNELS 3 Xrotation Zrotation Yrotation
							End Site
							{
								OFFSET 0.00000 0.00000 3.93700
							}
						}
						End Site
						{
							OFFSET -3.93700 0.00000 0.00000
						}
					}
				}
			}
		}
	}
	JOINT LeftUpLeg
	{
		OFFSET 4.71176 0.00000 0.00000
		CHANNELS 3 Xrotation Yrotation Zrotation
		JOINT LeftLeg
		{
			OFFSET 0.00000 -15.51045 0.00000
			CHANNELS 3 Xrotation Yrotation Zrotation
			JOINT LeftFoot
			{
				OFFSET 0.00000 -14.85806 0.00000
				CHANNELS 3 Xrotation Yrotation Zrotation
				JOINT LeftToeBase
				{
					OFFSET 0.00000 -1.32744 4.95409
					CHANNELS 3 Xrotation Yrotation Zrotation
					End Site
					{
						OFFSET 0.00000 0.00000 2.95275
					}
				}
			}
		}
	}
	JOINT RightUpLeg
	{
		OFFSET -4.71176 0.00000 0.00000
		CHANNELS 3 Xrotation Yrotation Zrotation
		JOINT RightLeg
		{
			OFFSET 0.00000 -15.51045 0.00000
			CHANNELS 3 Xrotation Yrotation Zrotation
			JOINT RightFoot
			{
				OFFSET 0.00000 -14.85806 0.00000
				CHANNELS 3 Xrotation Yrotation Zrotation
				JOINT RightToeBase
				{
					OFFSET 0.00000 -1.32744 4.95409
					CHANNELS 3 Xrotation Yrotation Zrotation
					End Site
					{
						OFFSET 0.00000 0.00000 2.95275
					}
				}
			}
		}
	}
}
MOTION
Frames: 21
Frame Time: 0.008333
 3.8222 32.3012 -0.7865 0.4848 1.5552 1.3008 2.6531 4.8414 -2.5198 -11.8139 -8.1376 4.1108 -7.5436 13.9609 37.0839 6.6975 -18.0217 -53.2367 -66.7798 -0.0000 10.7824 -2.7726 -11.5743 -13.5702 33.1476 -0.0000 26.2537 7.3113 -29.5153 -33.7380 -15.1185 -6.0243 58.7669 41.1333 0.0000 15.1711 -1.8066 14.0438 7.4058 32.8623 0.0000 -24.3270 5.1186 -6.8727 -4.5263 -0.1355 0.0000 0.0000 -10.9698 24.2696 -10.5310 16.6158 0.0000 0.0000 5.0412 -5.7516 5.5032 0.0107 -0.0000 -0.0000 -10.3561 -21.1868 6.8222 11.3536 0.0000 0.0000
 3.8232 32.2992 -0.7928 0.4608 1.6434 1.3003 2.7030 5.0439 -2.5843 -11.8201 -8.4590 4.2549 -7.4314 13.7468 36.9315 7.4087 -19.2433 -54.0834 -69.7601 -0.0000 10.3583 -2.6964 -11.0087 -13.8545 33.1476 -0.0000 26.2537 7.6653 -29.8750 -33.2584 -14.3304 -5.0181 59.5407 42.5949 0.0000 15.0778 -1.9528 14.5235 7.7424 32.8623 0.0000 -24.3270 5.0902 -6.9076 -4.5258 -0.0753 -0.0000 -0.0000 -11.0021 24.2277 -10.4987 16.5999 -0.0000 0.0000 5.0535 -5.7884 5.5066 0.0298 -0.0000 -0.0000 -10.3952 -21.2315 6.8326 11.4311 -0.0000 -0.0000
 3.8251 32.2983 -0.7962 0.4632 1.7481 1.3053 2.6920 4.8455 -2.6046 -11.8251 -8.3826 4.3274 -7.3416 13.8828 36.6725 8.1606 -20.5333 -54.7504 -72.5672 -0.0000 9.8241 -2.5885 -10.7220 -13.6579 33.1476 -0.0000 26.2537 7.8844 -29.8722 -32.9622 -13.6819 -4.2079 60.4584 44.1019 0.0000 15.4720 -2.0367 14.4669 8.1018 32.8623 0.0000 -24.3270 5.0347 -7.0363 -4.5274 -0.0202 0.0000 -0.0000 -11.0247 24.2466 -10.5108 16.5930 -0.0000 0.0000 5.0539 -5.8436 5.5081 0.0293 -0.0000 0.0000 -10.4063 -21.2682 6.7975 11.3698 0.0000 -0.0000
 3.8224 32.2978 -0.8000 0.3980 1.8015 1.3193 2.7804 4.7046 -2.6578 -11.8672 -8.3441 4.4311 -7.2460 13.9731 36.4534 8.7777 -21.8068 -55.5261 -75.2224 -0.0000 9.4012 -2.5671 -10.5442 -13.7668 33.1476 -0.0000 26.2537 8.1604 -29.8798 -32.6190 -13.1598 -3.4013 61.3879 45.5131 0.0000 15.8298 -2.1728 14.7020 8.5027 32.8623 0.0000 -24.3270 5.0735 -7.0117 -4.5318 0.0072 0.0000 -0.0000 -11.0192 24.1828 -10.5290 16.5603 -0.0000 0.0000 5.1057 -5.8165 5.5067 0.0427 0.0000 -0.0000 -10.4425 -21.3375 6.7474 11.4144 -0.0000 -0.0000
 3.8189 32.2964 -0.8063 0.3614 1.8748 1.3276 2.8360 4.6134 -2.7156 -11.8997 -8.3770 4.5414 -7.1347 13.9732 36.2456 9.2956 -23.1030 -56.3981 -77.7469 -0.0000 9.2606 -2.5447 -10.4519 -13.7654 33.1476 -0.0000 26.2537 8.4731 -30.0091 -32.2289 -12.7480 -2.4933 62.3270 46.9351 0.0000 16.3691 -2.0541 14.1659 8.3376 32.8623 0.0000 -24.3270 5.0547 -6.9993 -4.5296 0.0833 0.0000 0.0000 -11.0419 24.0927 -10.5536 16.6175 -0.0000 0.0000 5.1235 -5.8090 5.5123 0.0646 0.0000 0.0000 -10.4823 -21.4274 6.7182 11.4198 0.0000 0.0000
 3.8164 32.2947 -0.8079 0.3105 1.9441 1.3363 2.8981 4.5353 -2.7722 -11.9365 -8.4379 4.6404 -6.9962 13.9556 36.0249 9.6577 -24.3216 -57.3580 -80.1694 -0.0000 9.4426 -2.6412 -10.5522 -14.1386 33.1476 -0.0000 26.2537 8.6063 -30.0152 -31.9456 -12.1189 -1.7157 63.3159 48.2694 0.0000 17.2219 -2.2678 14.6877 8.8773 32.8623 0.0000 -24.3270 5.0792 -6.9811 -4.5304 0.1190 0.0000 0.0000 -11.0631 24.0178 -10.5502 16.6355 -0.0000 -0.0000 5.1753 -5.8233 5.5179 0.0668 -0.0000 0.0000 -10.5101 -21.4823 6.6894 11.3891 0.0000 0.0000
 3.8151 32.2943 -0.8103 0.2932 1.9602 1.3524 2.9181 4.4373 -2.8146 -11.9844 -8.4136 4.6854 -6.8486 14.0268 35.7340 9.9056 -25.5483 -58.3113 -82.4726 -0.0000 9.5958 -2.6202 -10.0667 -14.6713 33.1476 -0.0000 26.2537 8.7053 -30.0023 -31.7208 -11.6314 -0.8406 64.3869 49.4988 0.0000 17.8712 -2.0762 14.4663 8.2570 32.8623 0.0000 -24.3270 5.0909 -6.9107 -4.5461 0.1238 -0.0000 0.0000 -11.0472 23.9436 -10.5349 16.5902 -0.0000 -0.0000 5.1599 -5.8530 5.5110 0.1248 -0.0000 0.0000 -10.5505 -21.4761 6.6083 11.3020 0.0000 -0.0000
 3.8133 32.2924 -0.8143 0.2691 1.9975 1.3566 2.9501 4.3053 -2.8443 -12.0418 -8.3923 4.7346 -6.6565 14.1585 35.4393 9.9126 -26.7638 -59.3709 -84.5700 -0.0000 10.1400 -2.7705 -10.1843 -15.3062 33.1476 -0.0000 26.2537 8.7887 -29.9081 -31.4767 -11.0560 0.0053 65.3973 50.7898 0.0000 18.3546 -2.0357 14.3635 8.1540 32.8623 0.0000 -24.3270 5.0888 -6.8319 -4.5466 0.1644 0.0000 0.0000 -11.0725 23.8439 -10.5392 16.6254 -0.0000 0.0000 5.1577 -5.9373 5.5178 0.1811 0.0000 -0.0000 -10.6203 -21.4567 6.5630 11.4728 -0.0000 -0.0000
 3.8100 32.2906 -0.8170 0.2091 2.0566 1.3765 3.0331 4.1827 -2.9115 -12.0972 -8.3066 4.7693 -6.5579 14.2101 35.1832 9.8636 -28.0367 -60.5347 -86.4804 -0.0000 10.7984 -2.7534 -9.9053 -15.6197 33.1476 -0.0000 26.2537 8.9743 -29.8866 -31.1820 -10.6636 0.7370 66.4892 51.9792 0.0000 18.9212 -2.1595 14.5734 8.5232 32.8623 0.0000 -24.3270 5.1121 -6.7870 -4.5563 0.2200 -0.0000 -0.0000 -11.0822 23.7452 -10.5695 16.6333 0.0000 -0.0000 5.1991 -6.0730 5.5198 0.2325 -0.0000 0.0000 -10.6660 -21.3916 6.4393 11.3239 -0.0000 -0.0000
 3.8079 32.2894 -0.8218 0.1806 2.0872 1.3882 3.0787 4.1084 -2.9601 -12.1530 -8.2790 4.8155 -6.4641 14.2083 34.9082 9.7426 -29.2437 -61.7435 -88.2127 -0.0000 11.3715 -2.7520 -9.7501 -15.8457 33.1476 -0.0000 26.2537 9.1294 -29.8507 -30.8853 -10.2156 1.5815 67.5181 53.1311 0.0000 19.2187 -2.1139 14.6052 8.3278 32.8623 0.0000 -24.3270 5.1127 -6.7915 -4.5637 0.2484 -0.0000 -0.0000 -11.0890 23.7192 -10.5438 16.6078 -0.0000 0.0000 5.1994 -6.1703 5.5205 0.2889 0.0000 -0.0000 -10.7063 -21.3454 6.3971 11.3282 -0.0000 0.0000
 3.8034 32.2875 -0.8283 0.1602 2.1228 1.3920 3.1145 4.0009 -2.9984 -12.2134 -8.2195 4.8575 -6.4526 14.2020 34.6584 9.6327 -30.5827 -62.9416 -89.7432 -0.0000 12.0798 -2.6785 -9.3994 -15.9847 33.1476 -0.0000 26.2537 9.3498 -29.8477 -30.5651 -9.8828 2.4517 68.5655 54.2685 0.0000 19.4741 -2.0994 14.5802 8.2852 32.8623 0.0000 -24.3270 5.0862 -6.7413 -4.5599 0.3191 -0.0000 -0.0000 -11.1267 23.6475 -10.5532 16.6072 -0.0000 -0.0000 5.2011 -6.1707 5.5285 0.3050 -0.0000 0.0000 -10.7320 -21.3888 6.3842 11.2375 0.0000 0.0000
 3.7974 32.2857 -0.8328 0.1352 2.1396 1.3937 3.1485 3.9110 -3.0324 -12.2612 -8.1239 4.8779 -6.3901 14.1865 34.4106 9.3846 -31.7479 -64.2104 -91.0521 -0.0000 12.3152 -2.8063 -9.4052 -16.6975 33.1476 -0.0000 26.2537 9.5375 -29.8418 -30.2772 -9.5319 3.3795 69.6603 55.3375 0.0000 19.9530 -1.9797 14.7222 7.7456 32.8623 0.0000 -24.3270 5.0875 -6.6876 -4.5520 0.3565 -0.0000 -0.0000 -11.1488 23.5871 -10.5645 16.5790 -0.0000 0.0000 5.2107 -6.1998 5.5395 0.3302 0.0000 0.0000 -10.7620 -21.3750 6.3727 11.2828 0.0000 -0.0000
 3.7924 32.2844 -0.8386 0.1345 2.1357 1.4004 3.1465 3.8408 -3.0674 -12.2942 -8.0478 4.8828 -6.3631 14.1173 34.1695 9.1733 -32.9579 -65.4660 -92.2889 -0.0000 12.4267 -2.8638 -9.2075 -17.3608 33.1476 -0.0000 26.2537 9.6502 -29.8041 -30.0292 -9.2105 4.2604 70.7491 56.2917 0.0000 20.0766 -2.0385 14.8507 7.9065 32.8623 0.0000 -24.3270 5.0651 -6.6416 -4.5529 0.3901 -0.0000 0.0000 -11.1663 23.5491 -10.5573 16.5837 -0.0000 0.0000 5.1859 -6.1689 5.5423 0.3558 -0.0000 0.0000 -10.7901 -21.3984 6.3237 11.2497 -0.0000 0.0000
 3.7874 32.2834 -0.8432 0.1253 2.1267 1.4197 3.1558 3.7309 -3.1141 -12.3457 -7.9526 4.8817 -6.3589 14.0301 33.9622 8.9871 -34.0725 -66.7504 -93.3478 -0.0000 12.5502 -2.9143 -9.1847 -17.6897 33.1476 -0.0000 26.2537 9.7176 -29.7271 -29.8182 -8.9535 5.0846 71.9099 57.1424 0.0000 20.2348 -2.0643 14.9410 7.9584 32.8623 0.0000 -24.3270 5.0644 -6.7127 -4.5659 0.3786 -0.0000 0.0000 -11.1559 23.6343 -10.5475 16.5880 -0.0000 -0.0000 5.1751 -6.1884 5.5302 0.3789 -0.0000 -0.0000 -10.8067 -21.3670 6.3321 11.2256 -0.0000 -0.0000
 3.7758 32.2818 -0.8384 0.1072 2.0435 1.4454 3.1440 3.7154 -3.2148 -12.3526 -7.9095 4.9493 -6.2538 13.9907 33.7785 8.6582 -35.1565 -68.0010 -94.2989 -0.0000 12.3614 -3.0091 -9.0746 -18.4330 33.1476 -0.0000 26.2537 9.7366 -29.6162 -29.6029 -8.6063 5.8888 73.0787 57.9458 0.0000 20.3516 -2.1648 15.2448 8.1808 32.8623 0.0000 -24.3270 5.1322 -6.5218 -4.5713 0.3363 0.0000 -0.0000 -11.1322 23.5325 -10.5932 16.6166 0.0000 0.0000 5.1992 -6.0511 5.5203 0.3534 0.0000 -0.0000 -10.8291 -21.4230 6.3091 11.2194 -0.0000 0.0000
 3.7660 32.2802 -0.8402 0.0933 2.0371 1.4494 3.1503 3.6334 -3.2663 -12.3978 -7.8741 4.9724 -6.1845 13.9073 33.5777 8.3074 -36.1916 -69.2538 -95.1602 -0.0000 12.1684 -2.9956 -8.7726 -18.9383 33.1476 -0.0000 26.2537 9.6532 -29.4624 -29.4413 -8.2006 6.6824 74.2204 58.7145 0.0000 20.3662 -2.3086 15.5268 8.5645 32.8623 0.0000 -24.3270 5.1377 -6.4012 -4.5610 0.3690 -0.0000 0.0000 -11.1531 23.4387 -10.6197 16.5867 -0.0000 -0.0000 5.2036 -6.1249 5.5370 0.3799 -0.0000 0.0000 -10.8570 -21.3389 6.2390 11.2269 0.0000 -0.0000
 3.7615 32.2793 -0.8509 0.1285 2.1108 1.4595 3.1199 3.4635 -3.2899 -12.4661 -7.8305 4.9272 -6.0903 13.8454 33.3428 7.9071 -37.1598 -70.4908 -95.9072 -0.0000 12.0002 -3.0965 -8.7802 -19.5140 33.1476 -0.0000 26.2537 9.6393 -29.3421 -29.2893 -7.9371 7.4435 75.4032 59.4140 0.0000 20.4768 -2.3901 15.5966 8.8246 32.8623 0.0000 -24.3270 5.0396 -6.4499 -4.5616 0.4351 0.0000 0.0000 -11.1660 23.4136 -10.6217 16.5792 -0.0000 -0.0000 5.1479 -6.2915 5.5415 0.4161 -0.0000 0.0000 -10.8750 -21.2639 6.2405 11.2260 0.0000 0.0000
 3.7499 32.2781 -0.8541 0.1240 2.0580 1.4655 3.1226 3.4231 -3.3347 -12.5283 -7.7856 4.8954 -6.0008 13.7658 33.0876 7.5029 -38.0686 -71.6192 -96.6024 -0.0000 11.8915 -3.1101 -8.4890 -20.2075 33.1476 -0.0000 26.2537 9.6004 -29.1886 -29.1637 -7.6252 8.1716 76.6144 60.0836 0.0000 20.6619 -2.4389 15.8031 8.8891 32.8623 0.0000 -24.3270 5.0383 -6.2818 -4.5545 0.4692 -0.0000 -0.0000 -11.1833 23.3092 -10.6266 16.5653 0.0000 0.0000 5.1495 -6.1330 5.5529 0.3794 -0.0000 -0.0000 -10.8660 -21.3506 6.1851 11.1571 -0.0000 -0.0000
 3.7292 32.2775 -0.8464 0.0649 1.8499 1.4848 3.1792 3.5679 -3.4535 -12.5790 -7.7233 4.9188 -5.9504 13.7090 32.8945 7.0186 -38.9560 -72.7267 -97.1531 -0.0000 11.6932 -3.3080 -8.4773 -21.4092 33.1476 -0.0000 26.2537 9.6406 -29.0744 -28.9541 -7.3289 8.9658 77.8049 60.7752 0.0000 20.8246 -2.4619 15.8717 8.9343 32.8623 0.0000 -24.3270 5.1878 -5.7558 -4.5430 0.4340 -0.0000 0.0000 -11.1429 22.9952 -10.7451 16.5734 0.0000 -0.0000 5.1897 -5.8639 5.5611 0.3822 -0.0000 0.0000 -10.8840 -21.4249 6.1142 11.1862 0.0000 -0.0000
 3.7165 32.2768 -0.8476 0.0373 1.7859 1.5010 3.2155 3.5562 -3.5054 -12.6546 -7.6585 4.8474 -5.8822 13.7088 32.6426 6.4125 -39.8134 -73.8537 -97.5989 -0.0000 11.7719 -3.4253 -8.4012 -22.2774 33.1476 -0.0000 26.2537 9.7009 -28.9736 -28.7939 -7.1195 9.7443 79.0011 61.3786 0.0000 21.0291 -2.4455 15.9427 8.8380 32.8623 0.0000 -24.3270 5.2353 -5.6851 -4.5393 0.4102 0.0000 0.0000 -11.1325 22.9901 -10.7670 16.6310 -0.0000 0.0000 5.2019 -5.8374 5.5630 0.3971 -0.0000 -0.0000 -10.8939 -21.3910 6.1258 11.1797 0.0000 -0.0000
 3.7047 32.2755 -0.8558 0.0645 1.7911 1.4996 3.1964 3.5024 -3.5194 -12.7272 -7.6040 4.7458 -5.8402 13.6784 32.3747 5.7890 -40.6554 -74.9681 -97.9902 -0.0000 12.0552 -3.5015 -8.2647 -23.0585 33.1476 -0.0000 26.2537 9.7930 -28.9119 -28.6381 -6.9711 10.5008 80.1934 61.9480 0.0000 21.0321 -2.4199 15.8416 8.8003 32.8623 0.0000 -24.3270 5.1639 -5.6576 -4.5250 0.4744 0.0000 -0.0000 -11.1637 22.9774 -10.7540 16.5693 -0.0000 -0.0000 5.1605 -5.7991 5.5845 0.3953 -0.0000 -0.0000 -10.9023 -21.4205 6.0911 11.2310 -0.0000 -0.0000
